<svg width="300" height="80" viewBox="0 0 300 80" fill="none" xmlns="http://www.w3.org/2000/svg">
  <path d="M50 15H55L65 65H60L58 55H47L45 65H40L50 15ZM57 50L52.5 25L48 50H57Z" fill="white"/>
  <path d="M80 15V65H75V15H80Z" fill="white"/>
  <path d="M100 15H95V65H100V45H115V65H120V15H115V40H100V15Z" fill="white"/>
  <path d="M130 15H150V20H140V65H135V20H125V15H130Z" fill="white"/>
  <path d="M155 15H180V20H160V35H175V40H160V60H180V65H155V15Z" fill="white"/>
  <path d="M190 15H195V60H215V65H190V15Z" fill="white"/>
  <path d="M230 15H225V65H230V45H245V65H250V15H245V40H230V15Z" fill="white"/>
  <path d="M260 15H280V20H265V40H280V45H265V65H260V15Z" fill="white"/>
</svg>
